<?xml version="1.0" encoding="UTF-8"?>
<!-- Created with Inkscape (http://www.inkscape.org/) -->
<svg width="59.436mm" height="35.001mm" version="1.1" viewBox="0 0 59.436 35.001" xmlns="http://www.w3.org/2000/svg">
 <g transform="translate(-39.342 -82.435)">
  <g transform="scale(.26458)" fill="#fff" style="shape-inside:url(#rect236);white-space:pre" aria-label="SE">
   <path d="m208.21 443.86q-36.864 0-59.52-20.352l20.16-28.8q17.28 16.512 41.28 16.512 14.208 0 14.208-6.912 0-3.264-7.488-4.992-7.296-1.728-17.856-3.648-10.368-1.92-20.928-5.568-10.368-3.648-17.856-12.864-7.296-9.216-7.296-23.232 0-17.472 14.016-29.952 14.208-12.48 39.168-12.48 32.448 0 54.336 17.856l-20.736 27.456q-16.704-12.672-37.632-12.672-9.792 0-9.792 5.76 0 2.688 5.184 4.608 5.376 1.92 13.248 3.072 7.872 0.96 17.088 3.84 9.408 2.688 17.28 6.528t13.056 12.096q5.376 8.064 5.376 19.2 0 21.12-14.784 32.832-14.592 11.712-40.512 11.712z"/>
   <path d="m373.33 441.55h-97.152v-128.06h97.152v33.792h-58.368v12.672h57.024v33.792h-57.024v14.016h58.368z"/>
  </g>
 </g>
</svg>
