<?xml version="1.0" standalone="no"?>
<!DOCTYPE svg PUBLIC "-//W3C//DTD SVG 20010904//EN"
 "http://www.w3.org/TR/2001/REC-SVG-20010904/DTD/svg10.dtd">
<svg version="1.0" xmlns="http://www.w3.org/2000/svg"
 width="900.000000pt" height="900.000000pt" viewBox="0 0 900.000000 900.000000"
 preserveAspectRatio="xMidYMid meet">
<metadata>
Created by potrace 1.14, written by Peter Selinger 2001-2017
</metadata>
<g transform="translate(0.000000,900.000000) scale(0.100000,-0.100000)"
fill="#000000" stroke="none">
<path d="M2039 7145 c-2 -1 -33 -6 -69 -9 -146 -15 -218 -26 -355 -57 -49 -11
-100 -22 -111 -25 -40 -8 -259 -86 -271 -96 -7 -6 -13 -8 -13 -5 0 8 -153 -69
-240 -121 -153 -92 -351 -264 -458 -397 -63 -79 -102 -134 -102 -144 0 -6 -4
-11 -9 -11 -5 0 -13 -10 -17 -22 -4 -13 -10 -25 -14 -28 -18 -12 -135 -271
-145 -320 -2 -8 -8 -35 -15 -60 -7 -25 -14 -54 -16 -65 -2 -11 -6 -31 -9 -45
-28 -134 -28 -477 1 -611 2 -13 9 -46 14 -74 6 -27 19 -77 30 -110 11 -33 20
-62 19 -65 -1 -11 63 -144 100 -208 61 -105 127 -188 231 -292 199 -199 410
-325 690 -409 41 -13 84 -27 95 -31 17 -8 48 -17 185 -55 32 -9 97 -26 135
-35 22 -5 69 -16 105 -25 36 -8 74 -17 85 -19 11 -2 34 -6 50 -10 54 -10 299
-56 330 -62 17 -3 71 -14 120 -24 50 -11 102 -21 118 -24 15 -3 35 -7 45 -10
9 -3 28 -7 42 -10 95 -19 175 -39 210 -51 22 -8 40 -12 40 -9 0 2 27 -9 59
-26 100 -50 134 -93 130 -163 -6 -109 -95 -190 -244 -226 -123 -29 -289 -42
-317 -25 -4 3 -8 2 -8 -3 0 -12 -96 -8 -300 13 -51 5 -221 34 -280 48 -14 3
-34 8 -45 10 -34 7 -249 78 -260 86 -5 4 -30 15 -54 24 -49 19 -193 88 -201
96 -3 3 -16 11 -30 18 -62 30 -324 211 -350 241 -3 4 -35 33 -72 65 -43 36
-68 53 -68 43 0 -8 -4 -17 -9 -19 -5 -1 -40 -48 -78 -103 -38 -55 -96 -138
-128 -185 -32 -47 -61 -87 -64 -90 -3 -3 -24 -32 -46 -65 -22 -33 -42 -62 -45
-65 -3 -3 -24 -32 -46 -65 -23 -33 -56 -80 -73 -105 -18 -25 -48 -70 -69 -100
-20 -30 -39 -57 -42 -60 -5 -4 -92 -127 -172 -245 l-28 -40 28 -23 c15 -13 44
-39 65 -58 21 -19 40 -34 44 -34 3 0 20 -12 38 -27 17 -16 42 -35 55 -43 12
-8 35 -24 49 -35 37 -29 124 -85 211 -137 73 -43 287 -151 292 -147 2 1 21 -7
44 -19 134 -68 467 -169 719 -217 17 -3 41 -8 55 -10 35 -7 158 -26 200 -30
19 -2 55 -7 80 -10 212 -26 763 -27 955 -1 86 12 132 19 150 22 11 2 39 7 63
10 23 3 95 19 160 35 64 17 122 31 127 33 36 8 122 40 133 49 6 5 12 6 12 2 0
-4 6 -3 13 2 6 5 35 18 62 28 58 21 253 121 276 141 8 8 19 14 23 14 6 0 140
95 176 126 52 43 210 204 210 213 0 6 4 11 8 11 19 0 193 278 207 330 1 3 7
19 14 35 42 107 53 139 71 215 42 173 52 254 55 460 2 178 -3 236 -40 417 -16
80 -87 246 -153 358 -22 37 -75 118 -82 125 -3 3 -23 27 -45 55 -83 103 -199
205 -320 283 -19 12 -189 95 -262 128 -55 25 -399 152 -418 154 -3 0 -10 2
-17 5 -16 5 -129 38 -143 41 -5 1 -58 16 -116 33 -58 16 -117 32 -130 35 -13
3 -34 7 -46 10 -44 11 -69 16 -123 26 -30 5 -82 14 -115 20 -33 5 -83 12 -111
15 -28 3 -62 8 -75 11 -62 13 -75 16 -94 19 -11 2 -42 8 -70 14 -27 6 -61 14
-75 16 -73 16 -233 71 -292 102 -84 44 -121 93 -120 158 2 83 53 147 146 181
28 10 53 19 56 19 147 27 451 16 635 -21 11 -3 36 -7 55 -10 19 -3 42 -7 50
-10 8 -3 26 -8 40 -10 64 -11 216 -60 342 -111 99 -39 292 -136 319 -159 8 -8
19 -14 23 -14 4 0 57 -34 119 -75 90 -62 113 -73 123 -63 14 14 269 351 294
389 8 12 23 29 33 38 9 8 17 21 17 28 0 7 4 13 8 13 5 0 24 22 43 50 19 27 37
50 42 50 4 0 7 4 7 10 0 9 19 35 48 65 6 8 12 16 12 20 0 4 6 12 13 19 6 7 21
25 32 40 11 16 65 87 120 159 55 73 111 147 124 165 l23 33 -28 28 c-39 37
-258 191 -273 191 -6 0 -11 5 -11 10 0 6 -5 10 -12 10 -6 0 -19 7 -28 15 -19
17 -294 157 -390 199 -98 42 -397 141 -465 153 -11 2 -36 8 -55 13 -47 12
-224 47 -280 54 -25 3 -54 8 -65 10 -11 2 -58 7 -104 11 -47 4 -94 9 -105 12
-24 6 -612 14 -617 8z"/>
<path d="M5124 7070 c-14 -5 -16 -252 -16 -2530 1 -1389 1 -2541 1 -2561 l1
-36 1945 0 1945 0 -3 676 -2 676 -1160 1 c-638 1 -1163 2 -1167 3 -4 0 -7 126
-7 279 l1 279 1111 0 c612 1 1126 2 1142 2 l31 1 -1 669 c0 368 -3 672 -7 676
-3 4 -516 7 -1140 8 l-1133 2 -2 253 c-1 188 2 252 10 249 7 -2 22 -1 33 4 12
4 25 5 28 2 8 -8 333 -6 346 2 6 3 10 3 10 -2 0 -8 114 -7 138 2 6 2 12 0 12
-4 0 -5 15 -5 34 -1 19 4 40 4 47 -1 7 -4 20 -4 30 1 9 5 19 7 22 3 8 -7 453
-7 465 1 5 3 12 3 16 -1 8 -8 323 -6 336 2 6 3 10 2 10 -3 0 -6 14 -7 34 -2
19 4 40 4 47 -1 7 -4 20 -4 30 1 9 5 19 6 23 3 8 -8 323 -6 336 2 6 3 10 2 10
-3 0 -6 14 -7 34 -2 19 4 40 4 47 -1 7 -4 21 -3 30 2 10 5 20 6 22 2 5 -8 69
-8 149 -2 l38 3 0 673 0 673 -33 1 c-136 4 -3831 3 -3843 -1z"/>
</g>
</svg>
